<svg xmlns="http://www.w3.org/2000/svg" width="44" height="31.95" viewBox="0 0 44 31.95">
  <g id="Groupe_3248" data-name="Groupe 3248" transform="translate(-30.523 -176.354)">
    <path id="path2" d="M11.2,39.95a5.687,5.687,0,0,1-4.175-1.725A5.687,5.687,0,0,1,5.3,34.05H2V11a2.878,2.878,0,0,1,.9-2.1A2.878,2.878,0,0,1,5,8H33.95v8.35H39.2L46,25.4v8.65H42.45a5.9,5.9,0,0,1-10.075,4.175A5.687,5.687,0,0,1,30.65,34.05H17.1a5.687,5.687,0,0,1-1.725,4.175A5.687,5.687,0,0,1,11.2,39.95Zm0-3A2.9,2.9,0,1,0,9.15,32a2.9,2.9,0,0,0,2.05,4.95ZM5,31.05H6.1A6.625,6.625,0,0,1,8.25,28.9a5.423,5.423,0,0,1,2.9-.8,5.425,5.425,0,0,1,2.925.825A6.967,6.967,0,0,1,16.25,31.05h14.7V11H5Zm31.55,5.9a2.9,2.9,0,1,0-2.05-.85A2.794,2.794,0,0,0,36.55,36.95Zm-2.6-10.2h9.3l-5.55-7.4H33.95ZM18,21.55Z" transform="translate(28.523 168.354)" fill="#053b81"/>
  </g>
</svg>
