<svg xmlns="http://www.w3.org/2000/svg" width="62" height="62" viewBox="0 0 62 62"><g fill="rgba(0,88,255,0.1)" stroke="rgba(0,88,255,0.1)" stroke-miterlimit="10" stroke-width="1"><circle cx="31" cy="31" r="31" stroke="none"/><circle cx="31" cy="31" r="30.5" fill="none"/></g><g transform="translate(11.36 13.68)"><path d="M34.56,30.24a2.88,2.88,0,1,1-2.88-2.88,2.88,2.88,0,0,1,2.88,2.88Z" fill="rgba(0,88,255,0.74)"/><path d="M13.68,30.24a2.88,2.88,0,1,1-2.88-2.88,2.88,2.88,0,0,1,2.88,2.88Z" fill="rgba(0,88,255,0.74)"/><path d="M33.84,23.76H11.355l.48-.779A1.441,1.441,0,0,0,12,21.863l-.469-1.8L32.4,18.974A1.536,1.536,0,0,0,33.84,17.46V7.92A1.444,1.444,0,0,0,32.4,6.48H8.006L7.724,5.4A1.44,1.44,0,0,0,6.33,4.32H1.44a1.44,1.44,0,1,0,0,2.88H5.217L9.062,21.992,7.55,24.444a1.441,1.441,0,0,0,1.225,2.2H33.84a1.44,1.44,0,0,0,0-2.88Z" fill="rgba(0,88,255,0.74)"/></g></svg>