<svg xmlns="http://www.w3.org/2000/svg" width="21.412" height="22.082" viewBox="0 0 21.412 22.082">
  <path id="Icon_awesome-cookie" data-name="Icon awesome-cookie" d="M21.343,10.989,20.838,7.7a5.779,5.779,0,0,0-1.554-3.146l-2.29-2.361a5.464,5.464,0,0,0-3.041-1.6L10.745.07a5.368,5.368,0,0,0-3.367.55L4.487,2.139A5.62,5.62,0,0,0,2.071,4.632L.6,7.6a5.877,5.877,0,0,0-.536,3.491l.505,3.289A5.78,5.78,0,0,0,2.126,17.53l2.29,2.361a5.467,5.467,0,0,0,3.041,1.6l3.208.524a5.371,5.371,0,0,0,3.367-.55l2.891-1.519a5.623,5.623,0,0,0,2.417-2.493l1.468-2.97a5.881,5.881,0,0,0,.536-3.492ZM7.36,15.872A1.381,1.381,0,1,1,8.7,14.492,1.36,1.36,0,0,1,7.36,15.872ZM8.7,8.971a1.381,1.381,0,1,1,1.338-1.38A1.36,1.36,0,0,1,8.7,8.971Zm6.691,5.521a1.381,1.381,0,1,1,1.338-1.38A1.36,1.36,0,0,1,15.389,14.492Z" transform="translate(0.002 0)" fill="#fff"/>
</svg>
