<svg xmlns="http://www.w3.org/2000/svg" width="21.803" height="21.803" viewBox="0 0 21.803 21.803">
  <path id="Icon_material-copyright" data-name="Icon material-copyright" d="M11.808,12.659a2.787,2.787,0,0,1,.327-.948,1.907,1.907,0,0,1,.643-.676,1.935,1.935,0,0,1,.992-.251,1.976,1.976,0,0,1,.687.142,1.758,1.758,0,0,1,.567.392,2.1,2.1,0,0,1,.371.578,1.909,1.909,0,0,1,.153.7H17.5a3.9,3.9,0,0,0-.305-1.406,3.272,3.272,0,0,0-.763-1.1,3.561,3.561,0,0,0-1.177-.72,4.211,4.211,0,0,0-1.515-.251,4.261,4.261,0,0,0-1.853.371,3.749,3.749,0,0,0-1.308,1A4.1,4.1,0,0,0,9.8,11.972a6.384,6.384,0,0,0-.262,1.788v.294a6.383,6.383,0,0,0,.251,1.788,3.963,3.963,0,0,0,.774,1.472,3.722,3.722,0,0,0,1.308.992,4.424,4.424,0,0,0,1.853.371,4.158,4.158,0,0,0,1.439-.251,3.719,3.719,0,0,0,1.177-.687,3.328,3.328,0,0,0,.807-1.025,2.934,2.934,0,0,0,.327-1.254H15.526a1.552,1.552,0,0,1-.164.632,1.6,1.6,0,0,1-.392.5,1.717,1.717,0,0,1-.567.327,2.165,2.165,0,0,1-.654.109,1.852,1.852,0,0,1-.97-.251,1.907,1.907,0,0,1-.643-.676,2.849,2.849,0,0,1-.327-.959,7.348,7.348,0,0,1-.087-1.09V13.76a7.263,7.263,0,0,1,.087-1.1ZM13.9,3A10.9,10.9,0,1,0,24.8,13.9,10.906,10.906,0,0,0,13.9,3Zm0,19.623A8.721,8.721,0,1,1,22.623,13.9,8.733,8.733,0,0,1,13.9,22.623Z" transform="translate(-3 -3)" fill="#fff"/>
</svg>
