<svg xmlns="http://www.w3.org/2000/svg" width="293.255" height="27.312" viewBox="0 0 293.255 27.312"><g transform="translate(-255.328 -445.796)"><g transform="translate(255.328 448.154)"><path d="M92.979,88.847v5.265H77.109V69.158h5.914V88.847Z" transform="translate(-77.109 -69.158)" fill="#3c3b6e" stroke="#3c3b6e" stroke-miterlimit="2" stroke-width="0"/></g><path d="M276.978-47.764v10.143h-3.107V-47.764Z" transform="translate(5.334 493.56)" fill="#772f51" stroke="#772f51" stroke-miterlimit="2" stroke-width="0"/><g transform="translate(291.464 448.154)"><path d="M84.6,69.158H77.942L68.285,94.112H75L81.285,76.22,84.43,85.2h0l3.119,8.908h6.688Z" transform="translate(-68.285 -69.158)" fill="#3c3b6e" stroke="#3c3b6e" stroke-miterlimit="2" stroke-width="0"/><path d="M88.055,108.237,84.092,102.1h7.893Z" transform="translate(-75.062 -83.283)" fill="#b22234" stroke="#b22234" stroke-miterlimit="2" stroke-width="0"/></g><g transform="translate(324.261 448.154)"><path d="M92.979,88.847v5.265H77.109V69.158h5.914V88.847Z" transform="translate(-77.109 -69.158)" fill="#3c3b6e" stroke="#3c3b6e" stroke-miterlimit="2" stroke-width="0"/></g><g transform="translate(346.971 448.154)"><path d="M75.536,94.112H93.2V88.847H75.536Zm0-9.732H93.2V79.115H75.536Zm0-15.222v5.265H93.2V69.158Z" transform="translate(-75.536 -69.158)" fill="#3c3b6e" stroke="#3c3b6e" stroke-miterlimit="2" stroke-width="0"/></g><g transform="translate(371.509 448.154)"><path d="M68.9,94.112l9.083-12.8L69.47,69.158h7.036l5.016,7.436,4.941-7.436h7.112L75.958,94.112Z" transform="translate(-68.896 -69.158)" fill="#3c3b6e" stroke="#3c3b6e" stroke-miterlimit="2" stroke-width="0"/><path d="M100.26,102.1H93.314l4.192,6.135h7.112Z" transform="translate(-79.366 -83.283)" fill="#b22234" stroke="#b22234" stroke-miterlimit="2" stroke-width="0"/></g><g transform="translate(403.575 448.154)"><path d="M84.6,69.158H77.942L68.285,94.112H75L81.285,76.22,84.43,85.2h0l3.119,8.908h6.688Z" transform="translate(-68.285 -69.158)" fill="#3c3b6e" stroke="#3c3b6e" stroke-miterlimit="2" stroke-width="0"/><path d="M88.055,108.237,84.092,102.1h7.893Z" transform="translate(-75.062 -83.283)" fill="#b22234" stroke="#b22234" stroke-miterlimit="2" stroke-width="0"/></g><g transform="translate(436.373 448.154)"><path d="M93.788,69.158V94.112H87.924L77.344,79.664V94.112H71.43V69.158h5.465l10.98,14.872V69.158Z" transform="translate(-71.43 -69.158)" fill="#3c3b6e" stroke="#3c3b6e" stroke-miterlimit="2" stroke-width="0"/></g><g transform="translate(465.589 448.154)"><path d="M93.879,81.635A12.442,12.442,0,0,1,81.4,94.112H70.8v-15H76.71v9.258H81.5A6.738,6.738,0,0,0,81.4,74.9H70.8V69.158h10.63A12.41,12.41,0,0,1,93.879,81.635Z" transform="translate(-70.796 -69.158)" fill="#3c3b6e" stroke="#3c3b6e" stroke-miterlimit="2" stroke-width="0"/></g><g transform="translate(495.536 448.117)"><path d="M93.52,94.115H86.733l-4.567-8.26H79.222V94.09H73.308V69.136H84.987c5.19,0,8.384,3.419,8.384,8.06,0,4.417-2.77,6.787-5.465,7.411Zm-14.3-14.149h4.966c1.9,0,3.144-1.1,3.144-2.77s-1.223-2.77-3.144-2.77H79.222Z" transform="translate(-73.308 -69.136)" fill="#3c3b6e" stroke="#3c3b6e" stroke-miterlimit="2" stroke-width="0"/></g><g transform="translate(522.631 448.154)"><path d="M84.6,69.158H77.942L68.285,94.112H75L81.285,76.22,84.43,85.2h0l3.119,8.908h6.688Z" transform="translate(-68.285 -69.158)" fill="#3c3b6e" stroke="#3c3b6e" stroke-miterlimit="2" stroke-width="0"/><path d="M88.055,108.237,84.092,102.1h7.893Z" transform="translate(-75.062 -83.283)" fill="#b22234" stroke="#b22234" stroke-miterlimit="2" stroke-width="0"/></g></g></svg>