<svg xmlns="http://www.w3.org/2000/svg" width="34.369" height="34.369" viewBox="0 0 34.369 34.369">
  <path id="Icon_awesome-linkedin-in" data-name="Icon awesome-linkedin-in" d="M7.693,34.369H.568V11.423H7.693ZM4.127,8.293A4.146,4.146,0,1,1,8.253,4.127,4.161,4.161,0,0,1,4.127,8.293ZM34.362,34.369h-7.11V23.2c0-2.662-.054-6.076-3.7-6.076-3.7,0-4.272,2.892-4.272,5.884V34.369H12.157V11.423h6.834v3.13h.1a7.487,7.487,0,0,1,6.742-3.705c7.211,0,8.537,4.749,8.537,10.917v12.6Z" transform="translate(0 -0.001)" fill="#fff"/>
</svg>
