	<svg xmlns="http://www.w3.org/2000/svg" width="83.11" height="83.11" viewBox="0 0 83.11 83.11">
  <path id="Icon_metro-hammer" data-name="Icon metro-hammer" d="M60.554,54.491,29.063,25.823l1.466-1.469a6.721,6.721,0,0,0,1.947-4.34c.058-.026.115-.052.17-.083l5.912-3.7a2.487,2.487,0,0,0-.131-3.3L28.144,2.624a2.47,2.47,0,0,0-3.291-.131L21.166,8.421c-.03.055-.057.113-.083.171a6.686,6.686,0,0,0-4.328,1.952l-5.592,5.608a6.721,6.721,0,0,0-1.947,4.34c-.058.026-.115.053-.17.083l-5.911,3.7a2.486,2.486,0,0,0,.131,3.3L13.546,37.88a2.47,2.47,0,0,0,3.292.131l3.687-5.928c.03-.055.057-.113.083-.17a6.685,6.685,0,0,0,4.328-1.952l1.624-1.629L55.151,59.909a1.972,1.972,0,0,0,2.84.328l2.89-2.9a1.985,1.985,0,0,0-.328-2.848Z" transform="matrix(-0.695, 0.719, -0.719, -0.695, 86.283, 40.32)" fill="#053b81"/>
</svg>
