<svg xmlns="http://www.w3.org/2000/svg" width="217" height="110" viewBox="0 0 217 110">
  <g id="Groupe_3317" data-name="Groupe 3317" transform="translate(-287 -666)">
    <rect id="Rectangle_830" data-name="Rectangle 830" width="217" height="110" rx="10" transform="translate(287 666)" fill="#fff"/>
    <path id="Icon_payment-paypal" data-name="Icon payment-paypal" d="M65.272,28.143H61.011a1.231,1.231,0,0,0-1.018.54L54.114,37.34l-2.49-8.319a1.233,1.233,0,0,0-1.179-.878H46.256a.738.738,0,0,0-.7.975l4.692,13.774-4.413,6.227a.738.738,0,0,0,.6,1.164H50.7a1.237,1.237,0,0,0,1.012-.528L65.879,29.3a.738.738,0,0,0-.607-1.159ZM36.784,36.395A4.727,4.727,0,0,1,32,40.444a3.286,3.286,0,0,1-3.511-4.123,4.743,4.743,0,0,1,4.751-4.079A3.57,3.57,0,0,1,36.065,33.4a3.651,3.651,0,0,1,.719,3Zm5.909-8.252h-4.24a.739.739,0,0,0-.73.624l-.186,1.184-.3-.429c-.919-1.332-2.965-1.778-5.009-1.778a9.749,9.749,0,0,0-9.463,8.529,8,8,0,0,0,1.579,6.513,6.632,6.632,0,0,0,5.338,2.155,8.117,8.117,0,0,0,5.87-2.424l-.189,1.178a.738.738,0,0,0,.73.853h3.818a1.229,1.229,0,0,0,1.216-1.038l2.292-14.514a.738.738,0,0,0-.73-.851Zm-25.442.1c-.484,3.178-2.91,3.178-5.259,3.178H10.656l.937-5.934a.737.737,0,0,1,.728-.623h.614c1.6,0,3.107,0,3.886.909a2.956,2.956,0,0,1,.43,2.469ZM16.23,19.952H7.375A1.23,1.23,0,0,0,6.16,20.991l-3.58,22.7a.738.738,0,0,0,.728.853H7.537a1.23,1.23,0,0,0,1.214-1.038l.966-6.125a1.23,1.23,0,0,1,1.215-1.039h2.8c5.832,0,9.2-2.822,10.077-8.416.4-2.445.016-4.367-1.129-5.713-1.258-1.48-3.49-2.263-6.452-2.263Zm94.609.624-3.633,23.118a.738.738,0,0,0,.728.853h3.655a1.229,1.229,0,0,0,1.214-1.039l3.583-22.7a.738.738,0,0,0-.73-.853h-4.089a.738.738,0,0,0-.73.624ZM99.933,36.395a4.727,4.727,0,0,1-4.785,4.049,3.286,3.286,0,0,1-3.511-4.123,4.744,4.744,0,0,1,4.751-4.079A3.57,3.57,0,0,1,99.214,33.4a3.651,3.651,0,0,1,.719,3Zm5.908-8.252H101.6a.739.739,0,0,0-.73.624l-.186,1.185-.3-.429c-.917-1.332-2.964-1.778-5.008-1.778a9.749,9.749,0,0,0-9.463,8.529A8,8,0,0,0,87.5,42.786a6.632,6.632,0,0,0,5.338,2.155,8.117,8.117,0,0,0,5.87-2.424l-.189,1.178a.738.738,0,0,0,.73.853h3.818a1.229,1.229,0,0,0,1.216-1.038L106.572,29a.739.739,0,0,0-.73-.853Zm-25.442.1c-.484,3.178-2.91,3.178-5.259,3.178H73.806l.937-5.934a.737.737,0,0,1,.728-.623h.614c1.6,0,3.107,0,3.886.909a2.961,2.961,0,0,1,.429,2.469Zm-1.021-8.292H70.524a1.23,1.23,0,0,0-1.216,1.039l-3.58,22.7a.739.739,0,0,0,.728.853H71a.861.861,0,0,0,.85-.726l1.016-6.437a1.23,1.23,0,0,1,1.214-1.039h2.8c5.832,0,9.2-2.822,10.077-8.416.4-2.445.016-4.367-1.129-5.713-1.258-1.48-3.49-2.263-6.452-2.263Z" transform="translate(336.017 685.882)" fill="#0058ff"/>
  </g>
</svg>
