<svg xmlns="http://www.w3.org/2000/svg" width="62" height="62" viewBox="0 0 62 62"><g transform="translate(-38 -986)"><g transform="translate(38 986)" fill="rgba(0,88,255,0.1)" stroke="rgba(0,88,255,0.1)" stroke-miterlimit="10" stroke-width="1"><circle cx="31" cy="31" r="31" stroke="none"/><circle cx="31" cy="31" r="30.5" fill="none"/></g><path d="M29.1,22.5a2.475,2.475,0,0,0,.495,2.73l.09.09a3,3,0,1,1-4.245,4.245l-.09-.09a2.5,2.5,0,0,0-4.23,1.77V31.5a3,3,0,1,1-6,0v-.135A2.475,2.475,0,0,0,13.5,29.1a2.475,2.475,0,0,0-2.73.495l-.09.09A3,3,0,1,1,6.435,25.44l.09-.09a2.5,2.5,0,0,0-1.77-4.23H4.5a3,3,0,1,1,0-6h.135A2.475,2.475,0,0,0,6.9,13.5a2.475,2.475,0,0,0-.5-2.73l-.09-.09A3,3,0,1,1,10.56,6.435l.09.09a2.475,2.475,0,0,0,2.73.495h.12A2.475,2.475,0,0,0,15,4.755V4.5a3,3,0,0,1,6,0v.135a2.5,2.5,0,0,0,4.23,1.77l.09-.09a3,3,0,1,1,4.245,4.245l-.09.09a2.475,2.475,0,0,0-.5,2.73v.12A2.475,2.475,0,0,0,31.245,15H31.5a3,3,0,0,1,0,6h-.135A2.475,2.475,0,0,0,29.1,22.5Z" transform="translate(51.023 999)" fill="none" stroke="#000" stroke-linecap="round" stroke-linejoin="round" stroke-width="3"/><g transform="translate(-68.065 2.743)"><g transform="translate(131.435 1008.604)"><path d="M14.306,8.653A5.653,5.653,0,1,1,8.653,3,5.653,5.653,0,0,1,14.306,8.653Z" transform="translate(-3 -3)" fill="none" stroke="#000" stroke-linecap="round" stroke-linejoin="round" stroke-width="2"/></g><path d="M12,18l2.261,2.261L16.523,18" transform="translate(122.827 997.257)" fill="none" stroke="#000" stroke-linecap="round" stroke-linejoin="round" stroke-width="2"/><path d="M18,12v6.189" transform="translate(119.088 998.873)" fill="none" stroke="#000" stroke-linecap="round" stroke-linejoin="round" stroke-width="2"/></g></g></svg>