<svg xmlns="http://www.w3.org/2000/svg" width="20.625" height="16.5" viewBox="0 0 20.625 16.5">
  <path id="Icon_awesome-user-check" data-name="Icon awesome-user-check" d="M7.219,8.25A4.125,4.125,0,1,0,3.094,4.125,4.125,4.125,0,0,0,7.219,8.25Zm2.888,1.031H9.568a5.61,5.61,0,0,1-4.7,0H4.331A4.332,4.332,0,0,0,0,13.613v1.341A1.547,1.547,0,0,0,1.547,16.5H12.891a1.547,1.547,0,0,0,1.547-1.547V13.613A4.332,4.332,0,0,0,10.106,9.281ZM20.516,5.143l-.9-.906a.382.382,0,0,0-.541,0L15.7,7.586,14.235,6.11a.382.382,0,0,0-.541,0l-.906.9a.382.382,0,0,0,0,.541L15.417,10.2a.382.382,0,0,0,.541,0l4.554-4.518A.385.385,0,0,0,20.516,5.143Z" fill="#fff"/>
</svg>
