<svg xmlns="http://www.w3.org/2000/svg" width="217" height="110" viewBox="0 0 217 110">
  <g id="Groupe_3316" data-name="Groupe 3316" transform="translate(-287 -666)">
    <rect id="Rectangle_830" data-name="Rectangle 830" width="217" height="110" rx="10" transform="translate(287 666)" fill="#fff"/>
    <path id="Icon_simple-visa" data-name="Icon simple-visa" d="M77.92,13.827a22.294,22.294,0,0,0-7.772-1.344c-8.576,0-14.628,4.324-14.673,10.519-.054,4.556,4.306,7.12,7.6,8.647,3.381,1.563,4.511,2.546,4.5,3.953-.022,2.131-2.7,3.1-5.19,3.1a18.361,18.361,0,0,1-8.178-1.675l-1.068-.5-1.21,7.138a29.026,29.026,0,0,0,9.715,1.675c9.116,0,15.075-4.292,15.146-10.894.071-3.631-2.278-6.387-7.24-8.656-3.011-1.474-4.886-2.461-4.886-3.957,0-1.322,1.6-2.734,4.953-2.734a15.9,15.9,0,0,1,6.5,1.219l.8.362,1.21-6.9-.21.045Zm22.257-.759h-6.7c-2.086,0-3.645.567-4.56,2.64L76.031,44.893h9.116l1.822-4.779,11.122.009c.272,1.117,1.072,4.77,1.072,4.77H107.2ZM43.148,12.8h8.679L46.4,44.643H37.716l5.431-31.852ZM21.087,30.35l.9,4.422,8.491-21.7h9.2L26,44.848H16.83l-7.5-26.916a1.777,1.777,0,0,0-.8-1.059A36.676,36.676,0,0,0,0,13.716l.112-.67H14.1c1.894.071,3.421.67,3.944,2.7l3.046,14.619ZM89.462,33.6l3.462-8.906c-.045.089.715-1.84,1.152-3.037L94.67,24.4l2.006,9.188H89.462V33.6Z" transform="translate(341.9 692.089)"/>
  </g>
</svg>
